<?xml version="1.0"?><svg width="349.68765" height="773.94421" xmlns="http://www.w3.org/2000/svg">
 <metadata id="metadata7">image/svg+xml</metadata>

 <g>
  <title>Layer 1</title>
  <g id="layer4" display="inline">
   <path d="m147.229004,773.205933c-0.440002,-0.440002 -6.876984,-0.955017 -14.302979,-1.14502c-13.256012,-0.337952 -13.594025,-0.421997 -18.536018,-4.635986c-2.769005,-2.360962 -6.80999,-5.646973 -8.980003,-7.302002l-3.944977,-3.007996l0.877991,-23.58197l0.877991,-23.582031l-3.637001,-3.796021c-2.896996,-3.023987 -4.724998,-3.795959 -8.98999,-3.795959c-4.619003,0 -5.75,0.578979 -8.249016,4.226013c-4.230988,6.174988 -9.603004,9.168945 -21.004002,11.703979c-10.82098,2.406982 -17.825989,1.580994 -21.214989,-2.502014c-1.058002,-1.274963 -3.94199,-1.912964 -8.644001,-1.912964l-7.056,0l0.921,-7.357056c2.042,-16.302979 2.960001,-32.754944 2.005011,-35.953979c-0.556,-1.864014 -2.826,-7.130981 -5.04401,-11.705017c-3.692989,-7.61499 -3.964001,-9.029968 -3.22599,-16.794983c0.61599,-6.473022 0.324989,-9.408997 -1.227011,-12.411011c-1.118,-2.161987 -2.03299,-5.783997 -2.03299,-8.046997c0,-2.480957 -2.504009,-8.802002 -6.30701,-15.919006c-9.522,-17.82196 -10.464,-22.032959 -8.914,-39.878967c0.713,-8.212036 0.968,-16.241028 0.566,-17.843994c-0.56499,-2.25 1.636,-6.137024 9.669,-17.072021l10.400999,-14.15802l4.305,-20.737c2.369001,-11.404968 4.893002,-22.057983 5.609011,-23.674988c0.71699,-1.615967 1.304001,-4.56897 1.304001,-6.562012c0,-2.776001 0.85099,-3.974976 3.645988,-5.132996c4.573002,-1.893982 12.288002,-9.920959 19.188999,-19.966003c5.07,-7.378967 5.311001,-8.167969 5.297001,-17.271973c-0.007999,-5.247009 -0.764988,-12.419006 -1.681,-15.937988c-1.335999,-5.127991 -1.363991,-8.679993 -0.138,-17.911987c2.975002,-22.419006 10.843014,-38.572021 29.501003,-60.563049c7.412994,-8.737976 8.063995,-10.018982 9.421997,-18.552002c0.802002,-5.041016 6.114014,-26.437988 11.804024,-47.547974c9.767967,-36.24202 10.348984,-39.132034 10.41198,-51.817032c0.064995,-13.105988 -0.071991,-13.760986 -5.630005,-26.842987c-4.703979,-11.071014 -7.134979,-14.936005 -13.950989,-22.178986c-8.132996,-8.642029 -17.888,-14.950012 -23.121002,-14.950012c-3.662018,0 -19.102997,-11.612 -19.136017,-14.390015c-0.026001,-2.241974 -12.59898,-20.164978 -20.868992,-29.750008c-9.376999,-10.867981 -11.637999,-19.964989 -8.424999,-33.904984c0.730011,-3.167007 1.25601,-8.225998 1.169001,-11.243996c-0.108999,-3.819 0.66201,-6.527012 2.538,-8.913002c2.35701,-2.995998 2.452999,-3.604 0.766998,-4.836998c-1.711988,-1.251999 -1.715988,-2.121002 -0.037998,-7.720001c3.070011,-10.24201 4.292999,-11.223009 12.93401,-10.376009c4.08099,0.399 16.34399,1.594009 27.251007,2.654009c10.906982,1.05999 21.846985,2.26399 24.30899,2.675991c5.85199,0.979008 8.431999,-0.659 6.556999,-4.164c-1.576988,-2.94499 -0.317009,-4.48299 4.957985,-6.054991c4.680016,-1.394001 6.396996,-3.137001 6.396996,-6.493c0,-2.815001 0.349007,-2.94101 6.220001,-2.24501c5.77301,0.684011 6.577003,0.416 11.195015,-3.724c8.553009,-7.66899 11.644012,-8.65399 26.981995,-8.59799c18.09201,0.06599 32.434998,3.194 47.802002,10.42599c25.105011,11.814001 42.147003,25.54401 54.587006,43.978001c2.878998,4.264999 8.30899,10.111012 12.066986,12.992008c14.048004,10.765999 28.584015,24.228012 29.453033,27.276993c0.494995,1.734009 1.835999,12.653008 2.981995,24.264008c2.080994,21.095001 4.822998,35.885986 9.408997,50.751007c2.822998,9.152985 1.838013,11.60199 -3.535034,8.78598c-6.265991,-3.284973 -11.727966,-10.317993 -14.052979,-18.096985l-2.252991,-7.535019l-6.945007,0.037003c-10.726013,0.058014 -11.423004,0.617004 -11.423004,9.169006c0,7.485016 6.790009,31.730011 16.115997,57.550018c4.237,11.72998 17.236023,38.582993 22.187988,45.833969c2.105042,3.083008 2.623047,5.867004 2.629028,14.153015c0.005981,7.953003 0.844971,12.789978 3.661987,21.124023c2.01001,5.945007 4.323975,14.653992 5.142029,19.354004c0.81897,4.698975 3.233948,12.64801 5.367981,17.662964c19.059998,44.789001 21.427979,73.677002 7.917969,96.592041c-4.764954,8.08197 -5.479004,10.450012 -7.332947,24.307007c-3.721008,27.813965 -9.764038,61.242004 -12.952026,71.648987c-5.161987,16.844971 -9.622009,50.802002 -9.496033,72.286987c0.059021,10.203979 -0.265991,23.184998 -0.722961,28.846985c-0.572998,7.087036 -0.15802,14.663025 1.330017,24.309021c2.799988,18.153992 3.219971,19.771973 5.129944,19.771973c1.015015,0 1.89801,2.865051 2.419006,7.855042c0.452026,4.320984 2.024048,11.893982 3.494019,16.830017c2.541016,8.531982 2.570984,9.297974 0.61499,15.517944c-2.052979,6.526001 -2.078003,6.549011 -10.190002,8.872009c-10.602966,3.036011 -18.186981,3.065002 -24.450989,0.093018c-2.787994,-1.322998 -6.398987,-2.231018 -8.023987,-2.018005c-1.625,0.211975 -6.096008,-0.914978 -9.934998,-2.507019c-6.252014,-2.591003 -6.990997,-3.302002 -7.083008,-6.815979c-0.057007,-2.156982 -1.063995,-6.786987 -2.239014,-10.288025c-2.838989,-8.459961 -7.898987,-11.302002 -23.550995,-13.228943c-11.291992,-1.390015 -11.882996,-1.626038 -16.263,-6.481018c-4.735992,-5.25 -17.841003,-14.499023 -22.720001,-16.033997c-1.552002,-0.488037 -4.25,-2.584045 -5.993988,-4.65802c-4.300018,-5.109985 -12.563995,-5.39801 -16.360016,-0.570984c-2.151001,2.732971 -3.572998,3.201965 -9.779999,3.223999c-7.085999,0.024963 -7.447998,0.203979 -14.776978,7.295959c-5.830017,5.640015 -7.654999,8.324036 -8.14502,11.979004c-1.067993,7.960999 4.559998,23.105042 9.407013,25.313049c2.742004,1.25 2.997986,1.973999 2.281006,6.45697c-0.622009,3.892029 -0.223999,5.875977 1.737,8.655029c5.169983,7.326965 9.509979,17.575989 10.175995,24.031006c0.627991,6.080994 0.350006,7.019958 -3.30899,11.187988c-2.197021,2.501953 -3.994019,5.964966 -3.994019,7.695984c0,2.544983 -0.946991,3.430969 -4.946991,4.629028c-5.640991,1.689941 -7.093018,1.809998 -8.222015,0.680969l0,0l0,0z" id="path10970" fill="#631663"/>
  </g>
 </g>
</svg>